<svg
  viewBox="0 0 64 64"
  xmlns="http://www.w3.org/2000/svg"
  aria-hidden="true"
>
  <g
    fill="none"
    stroke="currentColor"
    stroke-width="2.4"
    stroke-linecap="round"
    stroke-linejoin="round"
  >
    <!-- cabeza -->
    <circle cx="32" cy="20" r="6" />

    <!-- antenas -->
    <path d="M28 14 L24 8" />
    <path d="M36 14 L40 8" />

    <!-- cuerpo -->
    <ellipse cx="32" cy="38" rx="10" ry="12" />
    <!-- franjas del cuerpo -->
    <path d="M22.5 34h19" />
    <path d="M23.5 38h17" />
    <path d="M22.5 42h19" />

    <!-- alas izquierda / derecha -->
    <path d="M24 28c-4-3-9-4-13-3 0 4 3 8 8 11" />
    <path d="M40 28c4-3 9-4 13-3 0 4-3 8-8 11" />

    <!-- colita -->
    <path d="M28 48c1.2 3.8 2.3 5.7 4 7.5 1.7-1.8 2.8-3.7 4-7.5" />
  </g>
</svg>